<svg width="18" height="80" viewBox="0 0 18 80" fill="none" xmlns="http://www.w3.org/2000/svg">
<path d="M6.57229 0.838074C4.90232 1.29165 3.85085 1.91016 2.59322 3.18841C-0.787968 6.56959 -0.870436 11.8063 2.40766 15.27C4.36628 17.3317 6.44859 18.177 9.27312 18.012C11.6235 17.8677 13.0254 17.2698 14.6748 15.7442C18.324 12.3217 18.5301 7.02317 15.1696 3.35335C13.0254 1.00301 9.64422 0.0133948 6.57229 0.838074Z" fill="white"/>
<path d="M7.27343 31.4543C2.69646 32.2584 -0.622874 36.8559 0.0987206 41.3711C0.882166 46.1748 5.39728 49.5354 10.0361 48.7932C15.8501 47.8448 19.1488 41.7628 16.716 36.4642C15.0873 32.8769 11.1288 30.7739 7.27343 31.4543Z" fill="white"/>
<path d="M6.09814 62.5447C4.5931 63.0395 3.52102 63.7611 2.32523 65.0393C-0.8704 68.4617 -0.746698 73.6985 2.61387 77.0796C7.68565 82.1514 16.2005 79.3681 17.4375 72.2553C17.9323 69.4514 16.9014 66.5856 14.6748 64.4827C12.943 62.8745 11.6235 62.3385 9.0876 62.2354C7.68565 62.1942 6.94344 62.256 6.09814 62.5447Z" fill="white"/>
</svg>
