<svg width="20" height="14" viewBox="0 0 20 14" fill="none" xmlns="http://www.w3.org/2000/svg">
<g clip-path="url(#clip0_277_3972)">
<path d="M1.88283 0.0820312C1.18752 0.210547 0.585957 0.549609 0.277364 0.987109C-0.0195113 1.4082 1.99379e-05 0.981641 1.99379e-05 7C1.99379e-05 11.6375 0.00783244 12.4277 0.0586137 12.5918C0.25002 13.2262 0.980489 13.7539 1.89846 13.918C2.18752 13.9699 2.34768 13.9727 6.1719 13.9727H10.1406L10.3399 13.9043C10.6211 13.8059 10.7539 13.6582 10.7735 13.4258C10.7891 13.2043 10.6836 13.043 10.4336 12.9199L10.2656 12.8379L6.27736 12.8242L2.28518 12.8105L2.12893 12.7504C1.93361 12.6766 1.81643 12.5918 1.7383 12.4633C1.68752 12.373 1.67971 11.777 1.67971 7C1.67971 2.22305 1.68752 1.62695 1.7383 1.53672C1.81643 1.4082 1.93361 1.32344 2.12893 1.24961L2.28518 1.18945L6.27736 1.17578L10.2656 1.16211L10.4336 1.08008C10.6836 0.957031 10.7891 0.795703 10.7735 0.574219C10.7539 0.341797 10.6211 0.19414 10.3399 0.0957031L10.1406 0.0273438L6.15627 0.0300779C2.3594 0.0300779 2.15236 0.0328131 1.88283 0.0820312Z" fill="white"/>
<path d="M13.8906 2.95312C13.3633 3.0707 13.125 3.5164 13.4297 3.81992C13.4883 3.87734 14.3359 4.47617 15.3125 5.15429C16.2891 5.82968 17.0977 6.39296 17.1016 6.4039C17.1094 6.41757 14.9023 6.42578 12.1992 6.42578H7.28125L7.10938 6.48593C6.89453 6.56523 6.73828 6.70195 6.67188 6.86875C6.57813 7.11757 6.76563 7.38828 7.10938 7.51132L7.28125 7.57421H12.1992C14.9023 7.57421 17.1094 7.58242 17.1016 7.59609C17.0977 7.60703 16.2891 8.17031 15.3125 8.8457C14.3359 9.52382 13.4883 10.1227 13.4297 10.1801C12.957 10.6504 13.7617 11.2711 14.5039 11.0004C14.6602 10.9457 19.8281 7.37187 19.9141 7.25976C20 7.15039 20 6.84961 19.9141 6.74023C19.8281 6.62539 14.6602 3.05429 14.5 2.99687C14.3438 2.93945 14.043 2.91757 13.8906 2.95312Z" fill="white"/>
</g>
<defs>
<clipPath id="clip0_277_3972">
<rect width="20" height="14" fill="white"/>
</clipPath>
</defs>
</svg>
