<svg width="94" height="33" viewBox="0 0 94 33" fill="none" xmlns="http://www.w3.org/2000/svg">
<path d="M26.6253 0.00417709C26.1354 0.684555 10.8713 18.3428 6.58916 23.1529L3.60271 26.5232H1.80135H0L0.0316027 29.5611L0.0790067 32.6149L7.11061 32.6624C10.9819 32.6941 17.5079 32.6624 21.6162 32.5991L29.0745 32.5042V29.5137V26.5232H27.9684H26.8623L26.8307 13.1529C26.7991 4.18139 26.7359 -0.154053 26.6253 0.00417709ZM20.6524 26.4757C20.6208 26.5073 18.1874 26.5073 15.2641 26.4915L9.93905 26.4441L15.2799 20.289L20.6208 14.1497L20.6682 20.2732C20.684 23.6592 20.684 26.4441 20.6524 26.4757Z" fill="#FF9900"/>
<path d="M71.4059 6.85577L66.7603 12.188L66.7129 7.09311L66.6813 1.99817H62.6519H58.6226V17.3463V32.6944H62.6519H66.6813V28.6912V24.6881L69.0673 21.9507C70.3788 20.4475 71.5165 19.2767 71.5797 19.3558C71.6429 19.4191 74.1553 22.4254 77.1892 26.0172C80.2073 29.6248 82.7671 32.5994 82.8619 32.6311C82.9567 32.6627 85.3743 32.6786 88.2185 32.6627L93.4014 32.6153L85.1847 22.8526C80.6497 17.4887 76.9522 13.0425 76.9522 12.995C76.9522 12.9475 79.1012 10.4317 81.74 7.40956C84.3788 4.38741 86.5752 1.82412 86.6542 1.71336C86.749 1.57096 85.6587 1.52349 81.4082 1.52349H76.0515L71.4059 6.85577Z" fill="#FF9900"/>
<path d="M28.7906 6.06442L28.838 9.83025L33.2308 9.87772L37.6077 9.90936V21.3018V32.6942H39.9779H42.3481V30.1626V27.6309H43.2172H44.0863V30.1626V32.71L46.1879 32.6626L48.2736 32.6151L48.321 21.286L48.3526 9.94101L52.698 9.83025L57.0434 9.71949V6.01695V2.31442H50.5648H44.1021L44.0547 4.64037L44.0073 6.98215L43.1856 7.02961L42.3481 7.07708V4.70366V2.31442H35.5536H28.759L28.7906 6.06442ZM44.0547 12.9473L44.0863 15.7638H43.2172H42.3481V12.8999V10.0518L43.1856 10.0992L44.0073 10.1467L44.0547 12.9473ZM43.9283 21.6182V24.941H43.1382H42.3481V21.6182V18.2955H43.1382H43.9283V21.6182Z" fill="#FF9900"/>
</svg>
