<svg width="160" height="130" viewBox="0 0 160 130" fill="none" xmlns="http://www.w3.org/2000/svg">
<path d="M153.846 100C152.214 100 150.649 100.632 149.495 101.757C148.341 102.882 147.692 104.409 147.692 106V110.5C147.692 112.489 146.882 114.397 145.439 115.803C143.997 117.21 142.04 118 140 118H20C17.96 118 16.0034 117.21 14.5606 115.803C13.1181 114.397 12.3077 112.489 12.3077 110.5V106C12.3077 104.409 11.6594 102.882 10.5052 101.757C9.35111 100.632 7.78594 100 6.15385 100C4.52175 100 2.95649 100.632 1.80243 101.757C0.648339 102.882 0 104.409 0 106V110.5C0.00652308 115.67 2.11569 120.626 5.86502 124.281C9.61434 127.937 14.6978 129.994 20 130H140C145.302 129.994 150.386 127.937 154.135 124.281C157.884 120.626 159.994 115.67 160 110.5V106C160 104.409 159.352 102.882 158.198 101.757C157.043 100.632 155.478 100 153.846 100Z" fill="white"/>
<path d="M55.4952 29.2912L73.778 17.3782V87.9343C73.778 89.5429 74.4322 91.0857 75.5967 92.2234C76.7612 93.3607 78.3405 94 79.9872 94C81.6338 94 83.2131 93.3607 84.3777 92.2234C85.5422 91.0857 86.1963 89.5429 86.1963 87.9343V17.3782L104.488 29.2912C105.505 29.9554 106.702 30.3099 107.925 30.3103C108.948 30.3109 109.956 30.0646 110.858 29.5933C111.761 29.1217 112.53 28.4399 113.097 27.608C114.01 26.2696 114.342 24.6322 114.02 23.0551C113.697 21.478 112.747 20.0905 111.377 19.1979L83.4643 1.01903H83.4426L83.4022 1.00084C82.9524 0.719694 82.4668 0.496477 81.9586 0.336646C81.8406 0.297219 81.7257 0.260825 81.6047 0.230497C81.0815 0.0840104 80.5407 0.00667226 79.9965 0C79.4532 0.00667226 78.9136 0.0840104 78.3914 0.230497C78.2704 0.260825 78.1555 0.297219 78.0344 0.336646C77.5265 0.49769 77.0416 0.720907 76.5908 1.00084L76.5535 1.01903H76.5318L48.6248 19.1979C47.2548 20.0899 46.3039 21.4771 45.9807 23.0542C45.6575 24.6316 45.9888 26.2693 46.9018 27.608C47.8149 28.9418 49.2321 29.8681 50.8427 30.1835C52.4534 30.4989 54.1261 30.178 55.4952 29.2912Z" fill="white"/>
</svg>
